<svg xmlns="http://www.w3.org/2000/svg" viewBox="0 0 1144 913" width="1144" height="913" role="img" aria-label="11 Oihana domains linked by the types of their properties; 5 pairs reference each other." xml:space="preserve">
<style>
text{fill:#2E302A;font-variant-numeric:tabular-nums}
.mono{font-family:"IBM Plex Mono",ui-monospace,"SF Mono",Menlo,Consolas,"DejaVu Sans Mono",monospace;white-space:pre}
.sans,.tag{font-family:"IBM Plex Sans",-apple-system,"Segoe UI",Helvetica,Arial,sans-serif;white-space:pre}
.ns{font-size:13px;font-weight:500}.role{font-size:12px;fill:#6B6E64}.ctx{font-size:11px;fill:#6B6E64}
.name{font-size:12.5px;font-weight:500}.desc{font-size:11px}.label{font-size:12px}.muted{fill:#6B6E64}
.band{fill:#EBEDE7}.box.org{fill:#DCEAEB}.box.xyz{fill:#F6E3D5}.box.neutral{fill:#E3E5DF}
.org-ink{fill:#0B454B}.xyz-ink{fill:#853B14}.neutral-ink{fill:#4B4D43}
.org-text{fill:#0F5E66}.xyz-text{fill:#C5622B}.neutral-text{fill:#4B4D43}
.edge{stroke:#2E302A;stroke-width:1.2;fill:none}.edge.direct{stroke:#6B6E64}.edge.mutual{stroke:#C5622B}
.mk path{fill:#2E302A}.mk.muted path{fill:#6B6E64}.mk.xyz path{fill:#C5622B}
.rule{stroke:#D8DAD2;stroke-width:1}.colhead{font-size:11.5px;fill:#6B6E64;font-weight:500}
.eyebrow{font-size:10.5px;fill:#6B6E64;letter-spacing:.08em;font-weight:500}
.chiptext{font-size:11.5px;font-weight:500}.leaves{font-size:11.5px}.leaf{fill:#853B14}.tag{font-size:11px;fill:#6B6E64}
.node{fill:#F6E3D5}.node.iso{fill:none;stroke:#D8DAD2;stroke-width:1.2;stroke-dasharray:4 3}
.badge{fill:#C5622B}.badge-text{fill:#F4F5F1;font-size:11px;font-weight:600}
.foot{font-size:10.5px}.foot-title{font-size:11.5px;font-weight:500}
</style>
<rect width="1144" height="913" fill="#F4F5F1"/>
<defs><marker id="arr3" class="mk" viewBox="0 0 10 10" refX="9" refY="5" markerWidth="9" markerHeight="9" markerUnits="userSpaceOnUse" orient="auto-start-reverse"><path d="M0,0 L10,5 L0,10 z"/></marker><marker id="arr3x" class="mk xyz" viewBox="0 0 10 10" refX="9" refY="5" markerWidth="9" markerHeight="9" markerUnits="userSpaceOnUse" orient="auto-start-reverse"><path d="M0,0 L10,5 L0,10 z"/></marker></defs>
<g transform="translate(32,32)">
<text class="sans colhead" x="1080" y="16" text-anchor="end">arrow = uses the type of a property · thickness = number of referenced classes · orange ⇄ = mutual reference</text>
<line class="edge" style="stroke-width:1.1" x1="890" y1="460" x2="810" y2="460" marker-end="url(#arr3)"/>
<line class="edge" style="stroke-width:1.1" x1="980" y1="436" x2="980" y2="294" marker-end="url(#arr3)"/>
<line class="edge" style="stroke-width:1.6" x1="200" y1="104" x2="200" y2="246" marker-end="url(#arr3)"/>
<line class="edge" style="stroke-width:1.6" x1="290" y1="101.9" x2="890" y2="248.1" marker-end="url(#arr3)"/>
<line class="edge" style="stroke-width:1.1" x1="265.7" y1="104" x2="654.3" y2="246" marker-end="url(#arr3)"/>
<path class="edge" style="stroke-width:1.1" d="M230,294 Q460,400 690,294" marker-end="url(#arr3)"/>
<line class="edge" style="stroke-width:1.6" x1="550" y1="270" x2="630" y2="270" marker-end="url(#arr3)"/>
<line class="edge" style="stroke-width:3" x1="427.2" y1="104" x2="232.8" y2="246" marker-end="url(#arr3)"/>
<line class="edge" style="stroke-width:1.6" x1="525.7" y1="104" x2="914.3" y2="246" marker-end="url(#arr3)"/>
<line class="edge" style="stroke-width:1.1" x1="492.8" y1="104" x2="687.2" y2="246" marker-end="url(#arr3)"/>
<line class="edge" style="stroke-width:1.1" x1="460" y1="104" x2="460" y2="246" marker-end="url(#arr3)"/>
<line class="edge" style="stroke-width:1.1" x1="654.3" y1="104" x2="265.7" y2="246" marker-end="url(#arr3)"/>
<line class="edge" style="stroke-width:1.1" x1="720" y1="104" x2="720" y2="246" marker-end="url(#arr3)"/>
<line class="edge" style="stroke-width:1.1" x1="687.2" y1="104" x2="492.8" y2="246" marker-end="url(#arr3)"/>
<line class="edge mutual" style="stroke-width:2.4" x1="290" y1="270" x2="370" y2="270" marker-end="url(#arr3x)" marker-start="url(#arr3x)"/>
<circle class="badge" cx="318" cy="256" r="9"/>
<text class="sans badge-text" x="318" y="260" text-anchor="middle">1</text>
<line class="edge mutual" style="stroke-width:2" x1="232.8" y1="104" x2="427.2" y2="246" marker-end="url(#arr3x)" marker-start="url(#arr3x)"/>
<circle class="badge" cx="292.6" cy="165" r="9"/>
<text class="sans badge-text" x="292.6" y="169" text-anchor="middle">2</text>
<line class="edge mutual" style="stroke-width:1.1" x1="630" y1="460" x2="550" y2="460" marker-end="url(#arr3x)" marker-start="url(#arr3x)"/>
<circle class="badge" cx="602" cy="446" r="9"/>
<text class="sans badge-text" x="602" y="450" text-anchor="middle">3</text>
<line class="edge mutual" style="stroke-width:1.1" x1="752.8" y1="246" x2="947.2" y2="104" marker-end="url(#arr3x)" marker-start="url(#arr3x)"/>
<circle class="badge" cx="829.1" cy="207.6" r="9"/>
<text class="sans badge-text" x="829.1" y="211.6" text-anchor="middle">4</text>
<line class="edge mutual" style="stroke-width:1.1" x1="890" y1="80" x2="810" y2="80" marker-end="url(#arr3x)" marker-start="url(#arr3x)"/>
<circle class="badge" cx="862" cy="66" r="9"/>
<text class="sans badge-text" x="862" y="70" text-anchor="middle">5</text>
<rect class="node" x="112" y="58" width="176" height="44" rx="4"/>
<text class="mono name xyz-ink" x="124" y="77">business\documents</text>
<text class="sans desc xyz-ink" x="124" y="93">27 classes</text>
<rect class="node" x="372" y="248" width="176" height="44" rx="4"/>
<text class="mono name xyz-ink" x="384" y="267">products</text>
<text class="sans desc xyz-ink" x="384" y="283">19 classes</text>
<rect class="node" x="632" y="438" width="176" height="44" rx="4"/>
<text class="mono name xyz-ink" x="644" y="457">auth</text>
<text class="sans desc xyz-ink" x="644" y="473">14 classes</text>
<rect class="node" x="632" y="58" width="176" height="44" rx="4"/>
<text class="mono name xyz-ink" x="644" y="77">thesaurus</text>
<text class="sans desc xyz-ink" x="644" y="93">11 classes</text>
<rect class="node" x="372" y="58" width="176" height="44" rx="4"/>
<text class="mono name xyz-ink" x="384" y="77">statistics</text>
<text class="sans desc xyz-ink" x="384" y="93">9 classes</text>
<rect class="node" x="632" y="248" width="176" height="44" rx="4"/>
<text class="mono name xyz-ink" x="644" y="267">places</text>
<text class="sans desc xyz-ink" x="644" y="283">8 classes</text>
<rect class="node" x="892" y="248" width="176" height="44" rx="4"/>
<text class="mono name xyz-ink" x="904" y="267">people</text>
<text class="sans desc xyz-ink" x="904" y="283">6 classes</text>
<rect class="node" x="112" y="248" width="176" height="44" rx="4"/>
<text class="mono name xyz-ink" x="124" y="267">organizations</text>
<text class="sans desc xyz-ink" x="124" y="283">5 classes</text>
<rect class="node" x="892" y="438" width="176" height="44" rx="4"/>
<text class="mono name xyz-ink" x="904" y="457">appointments</text>
<text class="sans desc xyz-ink" x="904" y="473">4 classes</text>
<rect class="node" x="372" y="438" width="176" height="44" rx="4"/>
<text class="mono name xyz-ink" x="384" y="457">business</text>
<text class="sans desc xyz-ink" x="384" y="473">2 classes</text>
<rect class="node" x="892" y="58" width="176" height="44" rx="4"/>
<text class="mono name xyz-ink" x="904" y="77">shipping</text>
<text class="sans desc xyz-ink" x="904" y="93">1 class</text>
<rect class="node iso" x="112" y="438" width="176" height="44" rx="4"/>
<text class="mono name muted" x="124" y="457">root · http</text>
<text class="sans desc muted" x="124" y="473">no link between domains</text>
<line class="rule" x1="24" y1="518" x2="1056" y2="518"/>
<text class="sans foot-title muted" x="24" y="540">The mutual references, class by class</text>
<circle class="badge" cx="33" cy="561" r="9"/>
<text class="sans badge-text" x="33" y="565" text-anchor="middle">1</text>
<text class="mono chiptext xyz-ink" x="52" y="565">organizations ⇄ products</text>
<text class="mono foot muted" x="52" y="581">organizations → products : Company→TaxRate, Customer→PriceSegmentation, Provider→ProductProviderInfo</text>
<text class="mono foot muted" x="52" y="596">products → organizations : CustomerOffer→Customer, PricingCondition→Customer, PricingCondition→Provider, PricingCondition→Subsidiary</text>
<circle class="badge" cx="33" cy="618" r="9"/>
<text class="sans badge-text" x="33" y="622" text-anchor="middle">2</text>
<text class="mono chiptext xyz-ink" x="52" y="622">business\documents ⇄ products</text>
<text class="mono foot muted" x="52" y="638">business\documents → products : BusinessDocumentLine→Product, DeliveryLine→Product, GoodsReceiptLine→Product</text>
<text class="mono foot muted" x="52" y="653">products → business\documents : PricingCondition→Adjustment</text>
<circle class="badge" cx="33" cy="675" r="9"/>
<text class="sans badge-text" x="33" y="679" text-anchor="middle">3</text>
<text class="mono chiptext xyz-ink" x="52" y="679">auth ⇄ business</text>
<text class="mono foot muted" x="52" y="695">auth → business : User→BusinessIdentity</text>
<text class="mono foot muted" x="52" y="710">business → auth : UserProfile→Role</text>
<circle class="badge" cx="33" cy="732" r="9"/>
<text class="sans badge-text" x="33" y="736" text-anchor="middle">4</text>
<text class="mono chiptext xyz-ink" x="52" y="736">places ⇄ shipping</text>
<text class="mono foot muted" x="52" y="752">places → shipping : Site→DeliveryRouteAssignment</text>
<text class="mono foot muted" x="52" y="767">shipping → places : DeliveryRouteAssignment→Site</text>
<circle class="badge" cx="33" cy="789" r="9"/>
<text class="sans badge-text" x="33" y="793" text-anchor="middle">5</text>
<text class="mono chiptext xyz-ink" x="52" y="793">shipping ⇄ thesaurus</text>
<text class="mono foot muted" x="52" y="809">shipping → thesaurus : DeliveryRouteAssignment→DeliveryRouteTerm</text>
<text class="mono foot muted" x="52" y="824">thesaurus → shipping : DeliveryRouteTerm→DeliveryRouteAssignment</text>
</g>
</svg>
